HIERARCHY
ROOT Hips
{
	OFFSET 0.000000 0.000000 0.000000
	CHANNELS 6 Xposition Yposition Zposition Yrotation Xrotation Zrotation
	JOINT Chest
	{
		OFFSET 0.000000 -0.009281 11.569106
		CHANNELS 3 Yrotation Xrotation Zrotation
		JOINT Chest2
		{
			OFFSET -0.000000 0.016865 9.269641
			CHANNELS 3 Yrotation Xrotation Zrotation
			JOINT Chest3
			{
				OFFSET -0.000000 0.000001 8.374491
				CHANNELS 3 Yrotation Xrotation Zrotation
				JOINT Chest4
				{
					OFFSET -0.000000 0.000001 8.374493
					CHANNELS 3 Yrotation Xrotation Zrotation
					JOINT Neck
					{
						OFFSET -0.000000 0.000002 12.152554
						CHANNELS 3 Yrotation Xrotation Zrotation
						JOINT Head
						{
							OFFSET -0.000000 0.040101 7.802319
							CHANNELS 3 Yrotation Xrotation Zrotation
							End Site
							{
								OFFSET -0.000000 0.020947 14.853096
							}
						}
					}
					JOINT RightCollar
					{
						OFFSET 2.894404 0.000001 6.791374
						CHANNELS 3 Yrotation Xrotation Zrotation
						JOINT RightShoulder
						{
							OFFSET 13.574684 0.000001 0.000000
							CHANNELS 3 Yrotation Xrotation Zrotation
							JOINT RightElbow
							{
								OFFSET 23.923903 0.000002 0.000000
								CHANNELS 3 Yrotation Xrotation Zrotation
								JOINT RightWrist
								{
									OFFSET 19.846718 0.012767 0.000000
									CHANNELS 3 Yrotation Xrotation Zrotation
									End Site
									{
										OFFSET 14.973145 0.000001 0.000000
									}
								}
							}
						}
					}
					JOINT LeftCollar
					{
						OFFSET -2.894404 0.000001 6.791374
						CHANNELS 3 Yrotation Xrotation Zrotation
						JOINT LeftShoulder
						{
							OFFSET -13.574684 -0.000001 0.000000
							CHANNELS 3 Yrotation Xrotation Zrotation
							JOINT LeftElbow
							{
								OFFSET -23.923903 -0.000002 0.000000
								CHANNELS 3 Yrotation Xrotation Zrotation
								JOINT LeftWrist
								{
									OFFSET -19.846718 0.012763 0.000000
									CHANNELS 3 Yrotation Xrotation Zrotation
									End Site
									{
										OFFSET -14.973145 -0.000001 0.000000
									}
								}
							}
						}
					}
				}
			}
		}
	}
	JOINT RightHip
	{
		OFFSET 9.469263 0.004643 0.045487
		CHANNELS 3 Yrotation Xrotation Zrotation
		JOINT RightKnee
		{
			OFFSET 0.000000 0.002661 -40.478676
			CHANNELS 3 Yrotation Xrotation Zrotation
			JOINT RightAnkle
			{
				OFFSET 0.000000 0.049106 -35.224068
				CHANNELS 3 Yrotation Xrotation Zrotation
				JOINT RightToe
				{
					OFFSET -0.000001 12.539529 -6.151390
					CHANNELS 3 Yrotation Xrotation Zrotation
					End Site
					{
						OFFSET -0.000001 5.044994 -1.291870
					}
				}
			}
		}
	}
	JOINT LeftHip
	{
		OFFSET -9.469263 0.004641 0.045487
		CHANNELS 3 Yrotation Xrotation Zrotation
		JOINT LeftKnee
		{
			OFFSET 0.000000 0.002661 -40.478676
			CHANNELS 3 Yrotation Xrotation Zrotation
			JOINT LeftAnkle
			{
				OFFSET 0.000000 0.049106 -35.224068
				CHANNELS 3 Yrotation Xrotation Zrotation
				JOINT LeftToe
				{
					OFFSET -0.000001 12.539529 -6.151390
					CHANNELS 3 Yrotation Xrotation Zrotation
					End Site
					{
						OFFSET -0.000001 5.044994 -1.291870
					}
				}
			}
		}
	}
}
MOTION
Frames: 8
Frame Time: 0.016667
0.783067 27.943096 82.720039 8.669947 0.786582 -93.181040 1.830604 -3.589963 0.659399 0.774324 -1.631778 0.193080 0.774324 -1.631778 0.193080 0.581219 -1.223593 0.146869 6.099626 -16.134568 -10.993983 7.380538 6.298643 -18.237134 8.491517 1.058539 -1.935469 42.829784 -18.898802 -6.145944 20.414291 -39.539897 55.051410 -29.305794 40.064722 65.736828 -6.524785 2.169979 -4.148383 -47.017711 -9.250730 6.971650 -34.818843 -54.751544 -15.853267 14.634133 14.081547 -59.113621 -4.324082 30.935662 -10.900010 -3.258483 -3.368207 -18.139592 5.021275 -4.933102 16.986797 -0.385229 0.222648 0.043030 -9.661389 4.392402 -2.523277 -3.342830 -1.512600 6.357664 4.238454 1.933236 5.577974 -0.073546 -0.128339 0.027296 
1.004712 27.939981 82.655479 8.925515 1.032784 -92.996864 1.818922 -3.677215 0.518067 0.776444 -1.633375 0.191303 0.776443 -1.633375 0.191303 0.582804 -1.224792 0.145543 6.103870 -16.058903 -10.992839 7.381406 6.438868 -18.235645 8.517262 1.030356 -1.883938 42.902997 -18.885313 -6.296888 20.337643 -39.508034 55.396017 -29.350272 40.062847 65.725544 -6.508017 2.113519 -4.147182 -46.990769 -9.147264 6.967339 -34.845781 -54.822998 -15.816707 14.557771 14.060290 -59.191990 -4.883351 31.332718 -11.075152 -3.191649 -3.515335 -18.211680 5.076800 -5.286180 16.897125 -0.360569 0.385721 0.048524 -9.870747 4.480739 -2.785891 -3.411042 -1.529835 6.288203 4.251773 2.119291 5.647714 -0.045641 -0.124794 0.053044 
1.249409 27.906883 82.582397 9.195911 1.310632 -92.844462 1.785015 -3.730622 0.445812 0.767070 -1.642392 0.193241 0.767070 -1.642390 0.193241 0.575783 -1.231558 0.146982 6.108770 -15.966330 -11.001690 7.378287 6.609985 -18.253035 8.548281 1.001854 -1.837606 42.998148 -18.898724 -6.415486 20.237034 -39.447297 55.723262 -29.396707 40.068666 65.712949 -6.482508 2.059562 -4.175613 -46.970343 -9.071544 6.947384 -34.820113 -54.856354 -15.814374 14.459133 14.048073 -59.297032 -5.480197 31.761104 -11.274671 -3.145949 -3.665643 -18.263632 5.176455 -5.663506 16.825413 -0.353301 0.523602 0.064292 -10.075629 4.541629 -2.942580 -3.497361 -1.502035 6.165791 4.248433 2.327921 5.686078 -0.015286 -0.138007 0.068213 
1.520138 27.842051 82.500641 9.440327 1.598121 -92.700898 1.753257 -3.770758 0.415812 0.753501 -1.657446 0.192967 0.753501 -1.657447 0.192966 0.565611 -1.242852 0.146759 6.105308 -15.865783 -11.017635 7.356331 6.794737 -18.287010 8.555818 0.963207 -1.802355 43.088201 -18.904591 -6.477524 20.130488 -39.393734 56.012264 -29.440134 40.055006 65.694248 -6.463452 2.002867 -4.199139 -46.956847 -9.025739 6.906157 -34.757610 -54.878094 -15.847651 14.371994 14.041730 -59.429797 -6.099286 32.153840 -11.589107 -3.110084 -3.775571 -18.367975 5.253709 -6.054341 16.765627 -0.347396 0.619384 0.074073 -10.283602 4.554875 -2.967637 -3.565843 -1.474694 5.977962 4.223461 2.583620 5.707466 0.009187 -0.169666 0.081867 
1.814622 27.754606 82.409477 9.639882 1.899349 -92.519605 1.724168 -3.810034 0.368700 0.740290 -1.678957 0.183076 0.740289 -1.678957 0.183076 0.555680 -1.258999 0.139332 6.084791 -15.770453 -11.029757 7.304549 6.968308 -18.320097 8.536221 0.925628 -1.758096 43.138256 -18.883014 -6.476512 20.057313 -39.377707 56.238671 -29.479131 40.020718 65.685151 -6.450928 1.909162 -4.187679 -46.933129 -8.962634 6.809525 -34.685176 -54.916043 -15.911766 14.289997 14.045207 -59.553219 -6.794678 32.468916 -12.081430 -3.048019 -3.826983 -18.544245 5.314717 -6.497020 16.902194 -0.354538 0.694315 0.077879 -10.512942 4.502694 -2.942562 -3.613496 -1.454447 5.701052 4.230875 2.878705 5.760395 -0.007514 -0.217930 0.084317 
2.121016 27.642973 82.308289 9.798098 2.192537 -92.314521 1.687889 -3.844340 0.339562 0.722756 -1.705350 0.182229 0.722755 -1.705354 0.182229 0.542536 -1.278801 0.138680 6.071235 -15.693196 -11.061776 7.260238 7.108347 -18.387240 8.535048 0.875922 -1.730056 43.171379 -18.822010 -6.436015 19.997563 -39.367014 56.423742 -29.514596 39.987284 65.687493 -6.403668 1.769592 -4.214608 -46.883696 -8.872014 6.660573 -34.656359 -54.964820 -15.967854 14.243086 14.080012 -59.645679 -7.567799 32.753571 -12.683940 -2.938620 -3.875460 -18.770021 5.290699 -6.995051 16.961738 -0.338080 0.784365 0.070157 -10.744467 4.423756 -2.975068 -3.649110 -1.486678 5.402730 4.299135 3.250421 5.948746 -0.071843 -0.293220 0.085251 
2.434741 27.518099 82.196815 9.904126 2.480603 -92.104015 1.652270 -3.875656 0.325316 0.707521 -1.732629 0.185693 0.707522 -1.732628 0.185693 0.531127 -1.299260 0.141266 6.049767 -15.642832 -11.108510 7.198517 7.197259 -18.483986 8.509474 0.789106 -1.701235 43.220361 -18.787335 -6.351849 19.907459 -39.308435 56.593995 -29.545554 39.975161 65.694392 -6.356615 1.646868 -4.229474 -46.824222 -8.811730 6.504881 -34.682908 -54.979147 -16.000263 14.199157 14.123612 -59.706515 -8.384190 33.065649 -13.244830 -2.829867 -3.984471 -18.975854 5.234226 -7.597142 16.951594 -0.305730 0.919793 0.068640 -10.990352 4.321820 -3.121924 -3.660398 -1.595751 5.142367 4.424396 3.687003 6.254630 -0.174333 -0.371069 0.075212 
2.756049 27.370882 82.077393 9.946991 2.774579 -91.853846 1.610370 -3.903038 0.302478 0.683239 -1.758566 0.195450 0.683238 -1.758565 0.195449 0.512952 -1.318707 0.148543 6.037617 -15.623767 -11.181779 7.147618 7.228099 -18.625757 8.511231 0.778188 -1.709157 43.283831 -18.866589 -6.291980 19.801919 -39.203148 56.719721 -29.580129 39.990256 65.705887 -6.345329 1.657511 -4.284920 -46.743182 -8.809515 6.472955 -34.743373 -54.973624 -15.989089 14.157450 14.160275 -59.768451 -9.237436 33.380975 -13.776460 -2.785329 -4.132226 -19.070843 5.189238 -8.313262 16.653861 -0.269678 1.098106 0.079315 -11.233881 4.176978 -3.410284 -3.672420 -1.779986 5.074331 4.548682 4.182826 6.443294 -0.270892 -0.434910 0.085635 
